<svg width="199" height="100" viewBox="0 0 199 100" fill="none" xmlns="http://www.w3.org/2000/svg">
<path d="M53.44 64.7V67.8C54.34 67.28 55.5 67.2 56.7 67.2H57.62C58.6 67.2 59.26 67.02 59.26 65.9C59.26 64.88 58.46 64.7 57.62 64.7H53.44ZM53.44 73H51.4V62.64H57.98C59.98 62.64 61.36 63.92 61.36 65.92C61.36 67.96 59.94 69.26 57.62 69.26H56.7C54.8 69.26 54.34 69.38 53.44 69.86V73ZM82.5147 68.78L83.1547 69.86C83.6547 70.7 84.3747 70.78 84.8947 70.78H85.6147V73H84.7147C83.6347 73 82.6547 72.92 81.6947 71.36L80.0947 68.76H79.9547C78.3347 68.76 77.8947 68.92 77.0547 69.36V73H74.9547V62.64H81.6347C83.5347 62.64 84.8947 63.96 84.8947 65.76C84.8947 67.34 84.0147 68.32 82.5147 68.78ZM79.9547 66.7H81.6347C82.2547 66.7 82.7947 66.36 82.7947 65.7C82.7947 64.78 81.9947 64.7 81.2747 64.7H77.0547V67.3C77.8547 66.86 78.8747 66.7 79.9547 66.7ZM101.663 73H99.6227V62.64H101.663V73ZM124.247 70.12L125.447 71.84C124.308 72.82 122.768 73.32 121.188 73.32C118.048 73.32 115.088 71.28 115.088 67.78C115.088 64.26 118.108 62.3 121.208 62.3C122.728 62.3 124.228 62.74 125.368 63.6L123.988 65.2C123.208 64.66 122.188 64.38 121.208 64.38C119.208 64.38 117.268 65.48 117.268 67.82C117.268 70.16 119.248 71.24 121.228 71.24C122.308 71.24 123.448 70.84 124.247 70.12ZM141.096 69.28V70.92H147.596V73H139.056V62.64H147.216V64.7H141.096V67.22C141.996 66.7 143.136 66.62 144.336 66.62H145.856V68.68H144.336C142.436 68.68 141.996 68.8 141.096 69.28ZM169.058 68.78L169.698 69.86C170.198 70.7 170.918 70.78 171.438 70.78H172.158V73H171.258C170.178 73 169.198 72.92 168.238 71.36L166.638 68.76H166.498C164.878 68.76 164.438 68.92 163.598 69.36V73H161.498V62.64H168.178C170.078 62.64 171.438 63.96 171.438 65.76C171.438 67.34 170.558 68.32 169.058 68.78ZM166.498 66.7H168.178C168.798 66.7 169.338 66.36 169.338 65.7C169.338 64.78 168.538 64.7 167.818 64.7H163.598V67.3C164.398 66.86 165.418 66.7 166.498 66.7Z" fill="black"/>
<path d="M69.68 35.2L66.92 38.4C65.32 37.08 63.16 36.6 60.76 36.6C58.76 36.6 56.56 37.64 56.56 38.84C56.56 40.08 57.04 40.92 61.08 40.92C69.92 40.92 71.28 43.92 71.28 47.28C71.28 52.24 66.72 54.64 60.8 54.64C57.2 54.64 53.68 52.92 51.4 50.24L54.36 47.24C55.6 48.56 57.12 50.64 60.8 50.64C64.56 50.64 67.2 49.44 67.2 47.28C67.2 45.4 65.12 45 60.8 45C55.84 45 52.24 43.36 52.24 38.84C52.24 35.08 56.2 32.6 60.8 32.6C63.8 32.6 66.64 33.12 69.68 35.2ZM94.8075 48.24L97.2075 51.68C94.9275 53.64 91.8475 54.64 88.6875 54.64C82.4075 54.64 76.4875 50.56 76.4875 43.56C76.4875 36.52 82.5275 32.6 88.7275 32.6C91.7675 32.6 94.7675 33.48 97.0475 35.2L94.2875 38.4C92.7275 37.32 90.6875 36.76 88.7275 36.76C84.7275 36.76 80.8475 38.96 80.8475 43.64C80.8475 48.32 84.8075 50.48 88.7675 50.48C90.9275 50.48 93.2075 49.68 94.8075 48.24ZM122.585 43.48C122.585 38.84 118.585 36.84 114.665 36.84C110.665 36.84 106.745 38.96 106.745 43.64C106.745 48.32 110.745 50.44 114.705 50.44C118.625 50.44 122.585 47.96 122.585 43.48ZM126.905 43.44C126.905 50.48 120.905 54.64 114.625 54.64C108.345 54.64 102.425 50.56 102.425 43.56C102.425 36.52 108.465 32.6 114.665 32.6C120.905 32.6 126.905 36.24 126.905 43.44ZM143.401 54.64H143.321C137.561 54.64 133.361 51.96 133.361 45.88V33.28H137.481V45.88C137.481 49.4 139.841 50.48 143.361 50.48C146.881 50.48 149.241 49.4 149.241 45.88V33.28H153.361V45.88C153.361 51.96 149.161 54.64 143.401 54.64ZM177.618 37.4H169.818V54H165.698V37.4H158.178V33.28H177.618V37.4Z" fill="black"/>
<line x1="51" y1="58.5" x2="178" y2="58.5" stroke="black"/>
<path d="M20.6556 35.7534C20.5698 35.8864 20.4794 36.2743 20.3845 36.9249C20.2987 37.5059 20.2881 37.5708 20.2158 37.8875C20.0622 38.5745 19.9793 38.994 19.6164 40.9428C19.4477 41.8468 19.3648 42.2552 19.1585 43.1987C18.7337 45.1507 18.4641 46.585 17.7261 50.8292C17.2275 53.6994 16.976 55.0688 16.6868 56.4809C16.6371 56.7199 16.4112 57.9674 16.1822 59.2513C15.7078 61.9157 15.5135 62.9795 15.4517 63.2407C15.3674 63.5969 15.3297 63.8312 15.3086 64.1272C15.3026 64.2016 15.2649 64.4027 15.2243 64.5753C14.9953 65.5536 14.8206 66.7314 14.7438 67.8127C14.7272 68.0312 14.7137 68.1103 14.5932 68.6201C14.5194 68.9304 14.4079 69.3736 14.3447 69.6047C14.2814 69.8359 14.1458 70.3314 14.0434 70.7066C13.8054 71.5741 13.6608 72.0712 13.5178 72.5097L13.4048 72.8564L13.453 72.953C13.5253 73.0971 13.6714 73.2411 13.8325 73.3282C14.0766 73.4596 14.313 73.5134 14.7137 73.5261C15.1068 73.5387 15.53 73.4944 16.0617 73.3804C16.2952 73.3298 16.7998 73.1952 16.8163 73.1794C16.8269 73.1683 17.0317 72.5952 17.226 72.0316L17.4068 71.5124L17.6432 70.3488C17.7728 69.7092 18.1312 67.9378 18.4415 66.4148C18.9747 63.7869 19.0048 63.6317 19.0199 63.3911C19.05 62.9494 19.3241 61.3188 19.6841 59.4286C20.1405 57.0413 20.2068 56.7247 20.5427 55.3094C20.7927 54.2551 20.8816 53.94 21.0548 53.4825C21.1165 53.3179 21.3199 52.6276 21.7024 51.2725C22.0097 50.1881 22.3561 48.9992 22.4721 48.6287C22.9872 46.9855 23.1454 46.433 23.7192 44.2673C23.8849 43.6404 24.0792 42.9169 24.1515 42.6605C24.4031 41.7613 24.4317 41.6505 24.5717 41.0457C24.7389 40.3302 24.8293 39.9566 24.9046 39.6843C24.9468 39.5291 24.9588 39.4563 24.9603 39.3439C24.9634 39.1144 24.9106 39.0241 24.6817 38.8595C24.5205 38.7439 24.4392 38.6774 24.0973 38.3782C23.6469 37.984 23.3532 37.7671 23.1755 37.6975C23.1153 37.6737 23.0987 37.6579 23.0716 37.5977C22.9963 37.4363 22.7688 37.2542 22.5414 37.1735L22.4254 37.1323V37.0737C22.4254 37.0199 22.4209 37.012 22.3546 36.9788C22.1483 36.8743 21.9329 36.7001 21.5744 36.3518C21.2205 36.0067 21.0638 35.8833 20.8334 35.7598C20.7641 35.7249 20.7053 35.6949 20.7023 35.6949C20.6978 35.6949 20.6767 35.7218 20.6556 35.7534Z" fill="black"/>
<path d="M32.2637 21.0057C31.2906 21.0259 30.3341 21.1115 29.3643 21.1703C22.7837 21.5678 16.1521 24.2428 10.5218 27.6578C8.09045 29.1318 5.79335 30.7727 3.49534 32.4578C2.52685 33.167 2.13524 33.4947 2.07047 33.6546C2.01323 33.7907 2.02679 34.2973 2.1021 34.8878C2.12319 35.0446 2.21657 35.8424 2.31297 36.6593C2.48317 38.1158 2.65337 39.0371 2.65337 39.0371L2.74224 38.9801C2.74224 38.9801 4.17648 38.0077 4.33127 37.8925C4.96388 37.424 9.38608 34.4541 10.9586 33.444C14.8831 30.9252 18.8103 28.3289 23.0865 26.5117C25.732 25.3878 28.5095 24.4821 31.3525 24.1465C33.0485 23.9457 34.4599 23.6898 36.4419 23.8774C37.9385 24.019 39.4212 24.4315 40.2165 24.6626C40.8403 24.8464 41.4398 25.1053 42.0586 25.3054C42.0433 25.5346 42.0052 25.752 41.923 25.9671C41.3725 27.3624 40.8732 28.7785 40.2315 30.1322C38.6171 33.5182 36.2325 37.145 33.2925 39.4836C33.0279 39.6937 32.8052 40.0498 32.5168 40.2054C32.3511 40.2941 32.2532 40.3638 31.9173 40.6345C31.6131 40.8798 30.3629 41.7395 29.9306 42.0007C28.6564 42.7701 27.1216 43.4033 25.1906 43.959C24.2439 44.2313 23.2914 44.4454 22.3138 44.5415L22.0592 45.4059C21.4598 47.4481 21.1992 48.3758 21.1706 48.5816C21.1604 48.6514 21.2854 48.5737 21.3799 48.5737C22.2641 48.5737 23.5007 48.4629 24.1905 48.3204C24.6988 48.2191 25.2256 48.2443 25.7344 48.1463C26.8574 47.9334 27.9801 47.7331 29.1007 47.5051C29.7797 47.367 30.4599 47.1635 31.1567 47.1869C33.2379 47.2583 35.0482 48.0746 36.7507 49.275C37.1502 49.559 37.691 50.0278 38.0253 50.3862C38.0519 50.4147 38.0799 50.4448 38.1093 50.4766C38.5973 51.0037 38.8127 51.2491 39.0703 51.5737C39.9017 52.6217 40.5102 53.7884 40.9545 55.1879C41.2861 56.2389 41.4726 58.4997 41.4726 58.4997C41.4726 58.4997 41.5742 59.7984 41.4726 60.6192C41.352 61.5936 41.0916 62.2215 40.8039 63.0353C40.2225 64.6738 39.4423 66.0289 37.9014 68.0822C36.2061 70.3329 33.5976 71.8009 31.0588 72.6811C29.9502 73.0657 28.6022 73.5138 28.3702 73.5755C27.3382 73.8529 26.2749 73.9513 25.2298 74.1565C23.5717 74.4761 21.8764 74.5955 20.1915 74.5222C18.6963 74.4567 17.2145 74.1911 15.7302 73.9998C14.2679 73.6574 12.8011 73.3222 11.3728 72.8425C9.8199 72.3187 6.88807 70.7467 6.88807 70.7467C6.88807 70.7467 6.52112 70.4696 6.38874 70.3872C6.48978 70.0818 6.64333 69.7863 6.80144 69.5101C7.58165 68.1518 8.83933 66.7856 10.4239 65.5761C14.0734 62.7915 19.4174 60.7794 26.0582 59.6886C30.0429 59.0352 34.0708 58.7634 38.1003 58.6865C37.5816 58.5326 37.0582 58.3947 36.5338 58.2638C32.1301 57.1669 27.5573 56.6236 23.0307 56.8944C18.4624 57.1651 14.4017 58.2385 10.8606 60.116C6.80408 62.2655 3.4192 65.5815 0.972451 69.5893C0.775139 69.9138 0.363947 70.6183 0.359429 70.642C0.356416 70.6515 0.422689 70.6864 0.50553 70.7196C0.791708 70.8336 -1.44863 69.2125 1.71049 71.394C4.86961 73.5755 10.4239 75.8383 14.3475 77.0757C15.4947 77.4256 16.7076 77.6774 18.3645 77.8992C19.0255 77.9877 19.6024 77.9377 20.2676 77.9797C20.9924 78.0254 25.2298 77.9797 25.2298 77.9797C25.2298 77.9797 27.359 78.0401 30.637 77.4256C31.1387 77.3316 31.4215 77.2846 31.9173 77.1612C36.4216 76.0407 40.0558 73.0797 42.0092 70.6468C44.1396 68.3786 44.5531 65.8369 44.8928 64.6853C45.2324 63.5336 45.5907 61.1699 45.3541 58.9269C45.1485 56.9774 44.9211 55.8265 44.0377 54.0987C43.1798 52.4207 42.4225 51.6084 41.0449 50.3705C39.6153 49.0859 38.522 48.4486 36.9104 47.7742C36.0172 47.399 34.6194 46.9922 33.4687 46.769C32.7593 46.6312 32.815 46.6455 32.8391 46.6138C32.8722 46.5727 32.9717 46.5362 33.1629 46.4935C33.3768 46.446 33.3618 46.4523 33.9401 46.1848C36.3817 45.048 38.5777 43.3662 40.4695 41.3959C41.4937 40.3305 42.3056 39.3506 43.2108 38.0904C45.5962 34.771 47.4424 30.9817 48.8937 27.1101C49.1015 26.5528 49.3486 25.9259 49.4434 25.7075C49.4854 25.6122 50.1564 24.0651 49.9661 24.0151C49.951 24.0104 49.6543 23.9344 49.3064 23.8457C45.2191 22.8027 41.1859 21.5733 36.9827 21.1956C35.4128 21.0537 33.8398 20.9779 32.2637 21.0057Z" fill="#F73BC2"/>
</svg>
